<svg id="visual" viewBox="0 0 960 540" width="960" height="540" xmlns="http://www.w3.org/2000/svg" xmlns:xlink="http://www.w3.org/1999/xlink" version="1.1"><rect x="0" y="0" width="960" height="540" fill="#730202"></rect><defs><linearGradient id="grad1_0" x1="43.8%" y1="0%" x2="100%" y2="100%"><stop offset="14.444444444444446%" stop-color="#f2b66d" stop-opacity="1"></stop><stop offset="85.55555555555554%" stop-color="#f2b66d" stop-opacity="1"></stop></linearGradient></defs><defs><linearGradient id="grad1_1" x1="43.8%" y1="0%" x2="100%" y2="100%"><stop offset="14.444444444444446%" stop-color="#f2b66d" stop-opacity="1"></stop><stop offset="85.55555555555554%" stop-color="#b56230" stop-opacity="1"></stop></linearGradient></defs><defs><linearGradient id="grad1_2" x1="43.8%" y1="0%" x2="100%" y2="100%"><stop offset="14.444444444444446%" stop-color="#730202" stop-opacity="1"></stop><stop offset="85.55555555555554%" stop-color="#b56230" stop-opacity="1"></stop></linearGradient></defs><defs><linearGradient id="grad2_0" x1="0%" y1="0%" x2="56.3%" y2="100%"><stop offset="14.444444444444446%" stop-color="#f2b66d" stop-opacity="1"></stop><stop offset="85.55555555555554%" stop-color="#f2b66d" stop-opacity="1"></stop></linearGradient></defs><defs><linearGradient id="grad2_1" x1="0%" y1="0%" x2="56.3%" y2="100%"><stop offset="14.444444444444446%" stop-color="#b56230" stop-opacity="1"></stop><stop offset="85.55555555555554%" stop-color="#f2b66d" stop-opacity="1"></stop></linearGradient></defs><defs><linearGradient id="grad2_2" x1="0%" y1="0%" x2="56.3%" y2="100%"><stop offset="14.444444444444446%" stop-color="#b56230" stop-opacity="1"></stop><stop offset="85.55555555555554%" stop-color="#730202" stop-opacity="1"></stop></linearGradient></defs><g transform="translate(960, 0)"><path d="M0 432C-55.3 426.2 -110.7 420.3 -165.3 399.1C-220 377.9 -274 341.3 -291.3 291.3C-308.7 241.3 -289.4 177.8 -306.7 127.1C-324.1 76.3 -378 38.1 -432 0L0 0Z" fill="#943918"></path><path d="M0 288C-36.9 284.1 -73.8 280.2 -110.2 266.1C-146.7 251.9 -182.7 227.6 -194.2 194.2C-205.8 160.9 -192.9 118.6 -204.5 84.7C-216 50.8 -252 25.4 -288 0L0 0Z" fill="#d48c4c"></path><path d="M0 144C-18.4 142.1 -36.9 140.1 -55.1 133C-73.3 126 -91.3 113.8 -97.1 97.1C-102.9 80.4 -96.5 59.3 -102.2 42.4C-108 25.4 -126 12.7 -144 0L0 0Z" fill="#f2b66d"></path></g><g transform="translate(0, 540)"><path d="M0 -432C50.6 -397.8 101.3 -363.6 136.6 -329.8C172 -296.1 192.1 -262.8 239.7 -239.7C287.3 -216.6 362.5 -203.6 399.1 -165.3C435.8 -127.1 433.9 -63.5 432 0L0 0Z" fill="#943918"></path><path d="M0 -288C33.8 -265.2 67.5 -242.4 91.1 -219.9C114.7 -197.4 128.1 -175.2 159.8 -159.8C191.6 -144.4 241.7 -135.7 266.1 -110.2C290.5 -84.7 289.3 -42.4 288 0L0 0Z" fill="#d48c4c"></path><path d="M0 -144C16.9 -132.6 33.8 -121.2 45.5 -109.9C57.3 -98.7 64 -87.6 79.9 -79.9C95.8 -72.2 120.8 -67.9 133 -55.1C145.3 -42.4 144.6 -21.2 144 0L0 0Z" fill="#f2b66d"></path></g></svg>